<svg preserveAspectRatio="none" width="100%" height="100%" overflow="visible" style="display: block;" viewBox="0 0 942.683 1090.73" fill="none" xmlns="http://www.w3.org/2000/svg">
<g id="Bubble BG2">
<path id="Vector" opacity="0.5" d="M411.068 1082.86C539.228 1104.1 709.28 1080.94 796.951 1030.18C924.801 956.266 1007.02 855.588 876.993 587.751C725.163 274.883 285.664 158.115 178.682 248.81C71.7008 339.506 -264.928 967.735 411.068 1082.86Z" fill="url(#paint0_linear_2007_15)" fill-opacity="0.7"/>
<path id="Vector_2" opacity="0.5" d="M532.213 415.14C549.061 209.212 444.878 24.3234 299.509 2.18082C154.141 -19.9621 22.6363 129.026 5.78709 334.954C-11.0621 540.882 93.1231 725.77 238.492 747.915C383.86 770.056 515.363 621.068 532.213 415.14Z" fill="url(#paint1_linear_2007_15)" fill-opacity="0.7"/>
</g>
<defs>
<linearGradient id="paint0_linear_2007_15" x1="595.596" y1="167.811" x2="251.259" y2="1620.64" gradientUnits="userSpaceOnUse">
<stop stop-color="#8B4BE2" stop-opacity="0.75"/>
<stop offset="1" stop-color="#EA6060" stop-opacity="0"/>
</linearGradient>
<linearGradient id="paint1_linear_2007_15" x1="234.384" y1="218.898" x2="-272.426" y2="556.058" gradientUnits="userSpaceOnUse">
<stop stop-color="#7117EA" stop-opacity="0"/>
<stop offset="1" stop-color="#EA6060"/>
</linearGradient>
</defs>
</svg>
