<svg preserveAspectRatio="none" width="100%" height="100%" overflow="visible" style="display: block;" viewBox="0 0 14 21.8952" fill="none" xmlns="http://www.w3.org/2000/svg">
<path id="Vector" d="M5.44444 21.8952H8.55556L9.33333 18.5267H4.66667L5.44444 21.8952ZM8.337 19.3689L7.94811 21.0531H6.05189L5.663 19.3689H8.337ZM7 0C7 0 0 0 0 7.57912C0 10.9476 4.66667 17.6846 4.66667 17.6846H9.33333C9.33333 17.6846 14 10.9476 14 7.57912C14 0 7 0 7 0ZM0.777778 7.57912C0.777778 5.04433 1.64889 3.46955 2.73778 2.48427C2.49667 3.4106 2.33333 4.53905 2.33333 5.89487C2.33333 10.1897 3.92 14.434 4.84556 16.5309C3.41444 14.3414 0.777778 9.86128 0.777778 7.57912ZM5.86444 16.8425C5.08667 15.1835 3.11111 10.5097 3.11111 5.89487C3.11111 4.05904 3.43 2.6948 3.82667 1.70951C4.31667 1.43161 4.81444 1.24634 5.25778 1.12003C4.93889 2.21479 4.66667 3.77272 4.66667 5.89487C4.66667 10.3834 5.56889 14.9224 6.00444 16.8425H5.86444ZM6.81333 16.8425C6.40889 15.1077 5.44444 10.476 5.44444 5.89487C5.44444 3.53692 5.79444 1.93689 6.14444 0.926337C6.61889 0.850546 6.94556 0.842125 7 0.842125C7.06222 0.842125 7.38111 0.850546 7.84778 0.917916C8.20556 1.92847 8.55556 3.5285 8.55556 5.89487C8.55556 10.476 7.59111 15.1077 7.19444 16.8425H6.81333ZM7.99556 16.8425C8.43111 14.9224 9.33333 10.3834 9.33333 5.89487C9.33333 3.7643 9.06111 2.20637 8.73444 1.1116C9.17778 1.23792 9.67556 1.42319 10.1656 1.68425V1.69267C10.5622 2.68638 10.8889 4.05904 10.8889 5.89487C10.8889 10.5013 8.91333 15.1835 8.14333 16.8425H7.99556ZM9.15444 16.5309C10.08 14.434 11.6667 10.1897 11.6667 5.89487C11.6667 4.52221 11.5033 3.38534 11.2544 2.459C12.3433 3.44429 13.2222 5.02748 13.2222 7.57912C13.2222 9.86128 10.5856 14.3414 9.15444 16.5309Z" fill="url(#paint0_linear_2007_21)" fill-opacity="0.5"/>
<defs>
<linearGradient id="paint0_linear_2007_21" x1="7" y1="0" x2="7" y2="21.8952" gradientUnits="userSpaceOnUse">
<stop stop-color="#2049D0"/>
<stop offset="1" stop-color="#46B5DE"/>
</linearGradient>
</defs>
</svg>
